<svg xmlns="http://www.w3.org/2000/svg" viewBox="0 0 960 600" role="img" aria-labelledby="title desc">
  <title id="title">Diario aperto</title>
  <desc id="desc">Illustrazione di un diario aperto con pagine chiare e rilegatura centrale.</desc>
  <defs>
    <linearGradient id="bg" x1="0" x2="1" y1="0" y2="1">
      <stop offset="0" stop-color="#dff8ff"/>
      <stop offset="1" stop-color="#fff3df"/>
    </linearGradient>
    <linearGradient id="paper" x1="0" x2="0" y1="0" y2="1">
      <stop offset="0" stop-color="#fffdf7"/>
      <stop offset="1" stop-color="#fff3df"/>
    </linearGradient>
    <filter id="shadow" x="-15%" y="-20%" width="130%" height="150%">
      <feDropShadow dx="0" dy="28" flood-color="#524023" flood-opacity=".18" stdDeviation="22"/>
    </filter>
  </defs>
  <rect width="960" height="600" fill="url(#bg)"/>
  <ellipse cx="480" cy="472" rx="330" ry="48" fill="#80521f" opacity=".13"/>
  <g filter="url(#shadow)">
    <path d="M157 142c88-26 192-12 303 38v282c-104-45-207-57-303-29V142Z" fill="url(#paper)" stroke="#e8ddc8" stroke-width="5"/>
    <path d="M500 180c111-50 215-64 303-38v291c-96-28-199-16-303 29V180Z" fill="url(#paper)" stroke="#e8ddc8" stroke-width="5"/>
    <path d="M460 180c13 16 27 16 40 0v282c-13 17-27 17-40 0V180Z" fill="#dcc7a8"/>
    <path d="M196 216h198M196 262h210M196 308h178M196 354h214" stroke="#8da1aa" stroke-width="10" stroke-linecap="round" opacity=".28"/>
    <path d="M557 222h192M557 268h214M557 314h165M557 360h200" stroke="#8da1aa" stroke-width="10" stroke-linecap="round" opacity=".28"/>
    <path d="M245 412c38-30 82-33 132-10" fill="none" stroke="#00a7c8" stroke-width="12" stroke-linecap="round" opacity=".5"/>
    <circle cx="678" cy="409" r="34" fill="#ff6b4a" opacity=".55"/>
  </g>
</svg>
